<svg width="488" height="316" viewBox="0 0 488 316" fill="none" xmlns="http://www.w3.org/2000/svg">
<g clip-path="url(#clip0_34_175)">
<path d="M368.597 251.644C367.261 242.638 366.908 233.514 367.545 224.432L368.597 209.402C362.797 220.951 364.108 236.151 368.597 251.644Z" fill="#CACACA"/>
<path d="M373.12 254.158C372.477 248.784 372.308 243.364 372.614 237.961L373.12 229.014C370.33 235.889 370.96 244.936 373.12 254.158Z" fill="#CACACA"/>
<path d="M393.225 265.223V270.251C393.222 270.651 393.063 271.033 392.781 271.316C392.498 271.598 392.116 271.758 391.717 271.76H389.204C389.138 271.76 389.073 271.773 389.012 271.798C388.95 271.823 388.895 271.86 388.848 271.907C388.802 271.954 388.765 272.009 388.739 272.07C388.714 272.131 388.701 272.197 388.702 272.263V313.499C388.7 313.899 388.54 314.281 388.258 314.564C387.975 314.846 387.593 315.006 387.194 315.008H356.539C356.139 315.007 355.756 314.848 355.473 314.565C355.19 314.283 355.031 313.899 355.031 313.499V272.263C355.031 272.13 354.977 272.002 354.883 271.908C354.789 271.814 354.662 271.76 354.528 271.76H351.513C351.113 271.76 350.73 271.601 350.447 271.318C350.165 271.035 350.006 270.651 350.005 270.251V265.223C350.005 265.024 350.044 264.828 350.12 264.645C350.195 264.462 350.306 264.295 350.446 264.155C350.586 264.015 350.753 263.904 350.936 263.828C351.119 263.753 351.315 263.714 351.513 263.714H391.717C392.116 263.715 392.499 263.875 392.782 264.157C393.064 264.44 393.223 264.823 393.225 265.223Z" fill="#F2F2F2"/>
<path d="M388.747 272.816H355.076V274.325H388.747V272.816Z" fill="#E6E6E6"/>
<path d="M388.702 295.016C377.435 299.681 366.045 299.733 354.528 295.016V284.387C365.615 280.661 377.615 280.661 388.702 284.387V295.016Z" fill="#E6E6E6"/>
<path d="M226.891 125.911C236.993 125.911 245.182 117.717 245.182 107.609C245.182 97.5005 236.993 89.3062 226.891 89.3062C216.789 89.3062 208.6 97.5005 208.6 107.609C208.6 117.717 216.789 125.911 226.891 125.911Z" fill="#2F2E41"/>
<path d="M231.987 89.81C235.152 89.8104 238.263 90.6327 241.016 92.1966C243.769 93.7605 246.069 96.0124 247.691 98.7321C249.314 101.452 250.203 104.546 250.273 107.713C250.343 110.88 249.59 114.01 248.088 116.799C249.674 114.814 250.829 112.519 251.48 110.063C252.13 107.606 252.262 105.041 251.868 102.53C251.473 100.019 250.56 97.6184 249.186 95.4805C247.813 93.3425 246.009 91.5143 243.891 90.1123C241.773 88.7102 239.385 87.7652 236.882 87.3374C234.378 86.9096 231.813 87.0084 229.35 87.6274C226.886 88.2465 224.579 89.3723 222.574 90.933C220.57 92.4938 218.912 94.4553 217.707 96.6925C219.417 94.5446 221.588 92.8102 224.061 91.6186C226.533 90.4269 229.242 89.8087 231.987 89.81Z" fill="#2F2E41"/>
<path d="M192.712 107.57C222.386 107.57 246.441 83.499 246.441 53.8059C246.441 24.1129 222.386 0.0418701 192.712 0.0418701C163.039 0.0418701 138.984 24.1129 138.984 53.8059C138.984 83.499 163.039 107.57 192.712 107.57Z" fill="#2F2E41"/>
<path d="M150.544 20.4479C159.802 10.0293 172.743 3.61749 186.636 2.56571C200.528 1.51393 214.286 5.90448 225.005 14.8107C224.566 14.3928 224.131 13.9715 223.675 13.5654C213.024 4.09878 199.052 -0.747606 184.831 0.0917857C170.61 0.931177 157.304 7.38763 147.839 18.0415C138.374 28.6954 133.525 42.6746 134.358 56.9053C135.19 71.1361 141.637 84.4534 152.28 93.9291C152.736 94.3352 153.205 94.7178 153.671 95.1055C143.577 85.4965 137.608 72.3388 137.024 58.4094C136.441 44.48 141.288 30.8686 150.544 20.4479Z" fill="#2F2E41"/>
<path d="M192.257 107.114C211.369 107.114 226.862 91.6111 226.862 72.4867C226.862 53.3624 211.369 37.859 192.257 37.859C173.145 37.859 157.652 53.3624 157.652 72.4867C157.652 91.6111 173.145 107.114 192.257 107.114Z" fill="#986129"/>
<path d="M209.934 116.515L172.903 118.181C172.903 118.181 175.993 137.344 155.959 139.167C135.925 140.989 117.711 135.522 110.426 149.191C103.141 162.86 106.281 211.531 106.281 211.531C106.281 211.531 119.941 260.739 130.869 268.029C141.797 275.319 237.415 265.295 237.415 265.295L277.432 214.733L276.077 175.74C275.369 155.378 256.791 140.091 236.781 143.859C236.388 143.933 235.992 144.012 235.594 144.098C235.594 144.098 231.198 140.81 219.137 134.776C211.761 131.085 209.934 116.515 209.934 116.515Z" fill="#CACACA"/>
<path d="M129.55 138.256C129.55 138.256 138.351 154.236 134.709 177.018C131.066 199.799 146.35 247.981 146.35 247.981L157.278 245.247C157.278 245.247 149.993 197.862 151.814 186.927C153.635 175.992 154.138 143.723 145.031 138.256C135.925 132.788 129.55 138.256 129.55 138.256Z" fill="#2F2E41"/>
<path d="M234.954 146.635L238.781 247.525L246.067 252.082C246.067 252.082 256.539 141.364 251.075 141.364H239.958C239.3 141.364 238.648 141.494 238.04 141.746C237.432 141.998 236.88 142.367 236.415 142.833C235.949 143.298 235.58 143.851 235.328 144.459C235.077 145.068 234.947 145.72 234.947 146.378C234.947 146.464 234.949 146.549 234.954 146.635Z" fill="#2F2E41"/>
<path d="M151.358 245.703C153.873 245.703 155.912 243.663 155.912 241.147C155.912 238.63 153.873 236.59 151.358 236.59C148.844 236.59 146.805 238.63 146.805 241.147C146.805 243.663 148.844 245.703 151.358 245.703Z" fill="#6709FA"/>
<path d="M242.424 250.259C244.939 250.259 246.977 248.219 246.977 245.703C246.977 243.187 244.939 241.147 242.424 241.147C239.909 241.147 237.871 243.187 237.871 245.703C237.871 248.219 239.909 250.259 242.424 250.259Z" fill="#6709FA"/>
<path d="M162.661 29.2017V63.8294H170.675L180.874 52.8943L179.508 63.8294H214.932L212.747 52.8943L217.118 63.8294H222.764V29.2017H162.661Z" fill="#2F2E41"/>
<path d="M157.197 70.2085C158.706 70.2085 159.929 67.9646 159.929 65.1966C159.929 62.4286 158.706 60.1847 157.197 60.1847C155.688 60.1847 154.465 62.4286 154.465 65.1966C154.465 67.9646 155.688 70.2085 157.197 70.2085Z" fill="#986129"/>
<path d="M227.317 70.2085C228.826 70.2085 230.049 67.9646 230.049 65.1966C230.049 62.4286 228.826 60.1847 227.317 60.1847C225.808 60.1847 224.585 62.4286 224.585 65.1966C224.585 67.9646 225.808 70.2085 227.317 70.2085Z" fill="#986129"/>
<path d="M303.113 305.975V309.027C303.114 309.865 302.959 310.696 302.655 311.476C302.52 311.824 302.357 312.161 302.168 312.482C301.569 313.488 300.719 314.321 299.701 314.899C298.684 315.478 297.534 315.782 296.363 315.781H71.9507C70.7804 315.782 69.6302 315.478 68.6126 314.899C67.5951 314.321 66.7452 313.488 66.1462 312.482C65.9568 312.161 65.7937 311.824 65.6588 311.476C65.3549 310.696 65.1997 309.865 65.2014 309.027V305.975C65.2012 305.088 65.3755 304.21 65.7144 303.391C66.0532 302.572 66.5501 301.827 67.1764 301.2C67.8028 300.573 68.5465 300.075 69.3651 299.736C70.1836 299.396 71.061 299.221 71.9471 299.221H84.8862V297.798C84.8862 297.761 84.8934 297.725 84.9075 297.69C84.9215 297.656 84.9422 297.625 84.9682 297.599C84.9942 297.573 85.0252 297.552 85.0593 297.538C85.0933 297.524 85.1298 297.517 85.1667 297.516H91.9169C91.9914 297.516 92.0629 297.546 92.1157 297.598C92.1685 297.651 92.1982 297.723 92.1983 297.797V299.221H96.4147V297.798C96.4146 297.761 96.4218 297.725 96.4359 297.69C96.4499 297.656 96.4706 297.625 96.4966 297.599C96.5227 297.573 96.5536 297.552 96.5877 297.538C96.6218 297.524 96.6583 297.517 96.6952 297.516H103.445C103.52 297.516 103.591 297.546 103.644 297.599C103.697 297.651 103.727 297.723 103.727 297.797V299.221H107.948V297.798C107.948 297.761 107.955 297.725 107.969 297.69C107.983 297.656 108.004 297.625 108.03 297.599C108.056 297.573 108.087 297.552 108.121 297.538C108.155 297.524 108.192 297.517 108.229 297.517H114.979C115.053 297.516 115.125 297.546 115.178 297.599C115.23 297.651 115.26 297.723 115.26 297.797V299.221H119.477V297.798C119.477 297.761 119.484 297.725 119.498 297.69C119.512 297.656 119.533 297.625 119.559 297.599C119.585 297.573 119.616 297.552 119.65 297.538C119.684 297.524 119.72 297.517 119.757 297.517H126.507C126.582 297.516 126.653 297.546 126.706 297.599C126.759 297.651 126.789 297.723 126.789 297.797V299.221H131.005V297.798C131.005 297.761 131.012 297.725 131.026 297.691C131.04 297.656 131.061 297.625 131.087 297.599C131.113 297.573 131.144 297.552 131.178 297.538C131.212 297.524 131.249 297.517 131.286 297.517H138.036C138.11 297.516 138.182 297.546 138.234 297.599C138.287 297.651 138.317 297.723 138.317 297.797V299.221H142.538V297.798C142.538 297.761 142.546 297.725 142.56 297.691C142.574 297.656 142.594 297.625 142.62 297.599C142.646 297.573 142.677 297.552 142.712 297.538C142.746 297.524 142.782 297.517 142.819 297.517H149.569C149.644 297.516 149.715 297.546 149.768 297.599C149.821 297.651 149.85 297.723 149.851 297.797V299.221H154.067V297.798C154.067 297.761 154.074 297.725 154.088 297.691C154.102 297.656 154.123 297.625 154.149 297.599C154.175 297.573 154.206 297.552 154.24 297.538C154.274 297.524 154.311 297.517 154.347 297.517H207.216C207.253 297.516 207.29 297.524 207.324 297.538C207.358 297.552 207.389 297.572 207.415 297.599C207.441 297.625 207.462 297.656 207.476 297.69C207.49 297.724 207.498 297.76 207.498 297.797V299.221H211.719V297.798C211.719 297.761 211.726 297.725 211.74 297.691C211.755 297.656 211.775 297.625 211.801 297.599C211.827 297.573 211.858 297.552 211.892 297.538C211.926 297.524 211.963 297.517 212 297.517H218.75C218.824 297.517 218.895 297.547 218.948 297.6C219.001 297.652 219.031 297.724 219.031 297.798V299.221H223.248V297.798C223.248 297.761 223.255 297.725 223.269 297.691C223.283 297.656 223.304 297.625 223.33 297.599C223.356 297.573 223.387 297.552 223.421 297.538C223.455 297.524 223.491 297.517 223.528 297.517H230.278C230.315 297.516 230.352 297.524 230.386 297.538C230.42 297.552 230.451 297.573 230.477 297.599C230.503 297.625 230.524 297.656 230.538 297.69C230.552 297.724 230.56 297.76 230.56 297.797V299.221H234.776V297.798C234.776 297.761 234.783 297.725 234.797 297.691C234.811 297.656 234.832 297.625 234.858 297.599C234.884 297.573 234.915 297.552 234.949 297.538C234.983 297.524 235.02 297.517 235.057 297.517H241.807C241.844 297.517 241.88 297.524 241.914 297.538C241.948 297.552 241.979 297.573 242.006 297.599C242.032 297.625 242.052 297.656 242.067 297.69C242.081 297.724 242.088 297.76 242.088 297.797V299.221H246.31V297.798C246.31 297.761 246.317 297.725 246.331 297.691C246.345 297.656 246.366 297.625 246.392 297.599C246.418 297.573 246.449 297.552 246.483 297.538C246.517 297.524 246.553 297.517 246.59 297.517H253.34C253.414 297.518 253.485 297.548 253.536 297.6C253.588 297.653 253.617 297.724 253.617 297.798V299.221H257.838V297.798C257.838 297.761 257.845 297.725 257.859 297.691C257.873 297.656 257.894 297.625 257.92 297.599C257.946 297.573 257.977 297.552 258.011 297.538C258.045 297.524 258.082 297.517 258.119 297.517H264.869C264.906 297.517 264.942 297.524 264.976 297.538C265.01 297.552 265.041 297.573 265.067 297.599C265.094 297.625 265.114 297.656 265.129 297.69C265.143 297.724 265.15 297.76 265.15 297.797V299.221H269.366V297.798C269.366 297.761 269.374 297.725 269.388 297.691C269.402 297.656 269.422 297.625 269.448 297.599C269.475 297.573 269.505 297.552 269.539 297.538C269.574 297.524 269.61 297.517 269.647 297.517H276.397C276.434 297.517 276.471 297.524 276.505 297.538C276.539 297.552 276.57 297.573 276.596 297.599C276.622 297.625 276.643 297.656 276.657 297.69C276.671 297.724 276.678 297.76 276.679 297.797V299.221H296.363C298.153 299.221 299.869 299.932 301.135 301.198C302.401 302.463 303.112 304.181 303.113 305.971L303.113 305.975Z" fill="#3F3D56"/>
<path d="M488 314.994H0V316H488V314.994Z" fill="#3F3D56"/>
<path d="M285.042 177.422H79.4783C78.7353 177.422 77.9995 177.568 77.3131 177.853C76.6266 178.137 76.0029 178.554 75.4775 179.08C74.9521 179.606 74.5353 180.23 74.251 180.917C73.9666 181.604 73.8203 182.34 73.8203 183.084V297.696C73.8203 299.197 74.4164 300.637 75.4775 301.699C76.5385 302.761 77.9777 303.357 79.4783 303.357H285.042C286.543 303.357 287.982 302.761 289.043 301.699C290.104 300.637 290.7 299.197 290.7 297.696V183.084C290.7 181.582 290.104 180.142 289.043 179.08C287.982 178.018 286.543 177.422 285.042 177.422Z" fill="#3F3D56"/>
<path d="M182.425 230.008C189.364 230.008 194.989 224.379 194.989 217.436C194.989 210.492 189.364 204.864 182.425 204.864C175.486 204.864 169.861 210.492 169.861 217.436C169.861 224.379 175.486 230.008 182.425 230.008Z" fill="#6709FA"/>
<path d="M260.201 134.379L323.625 70.4112H353.569V69.4054H323.206L323.058 69.5547L259.486 133.672L260.201 134.379Z" fill="#3F3D56"/>
<path d="M463.626 44.1489H390.142V50.7014H463.626V44.1489Z" fill="#6709FA"/>
<path d="M381.186 54.8445H365.63V39.2776H381.186V54.8445ZM366.635 53.8387H380.181V40.2833H366.635L366.635 53.8387Z" fill="#3F3D56"/>
<path d="M463.626 65.9904H390.142V72.5428H463.626V65.9904Z" fill="#6709FA"/>
<path d="M381.186 76.6859H365.63V61.1193H381.186V76.6859ZM366.635 75.6802H380.181V62.125H366.635L366.635 75.6802Z" fill="#3F3D56"/>
<path d="M463.626 87.8319H390.142V94.3843H463.626V87.8319Z" fill="#6709FA"/>
<path d="M381.186 98.5272H365.63V82.9606H381.186V98.5272ZM366.635 97.5215H380.181V83.9663H366.635L366.635 97.5215Z" fill="#3F3D56"/>
</g>
<defs>
<clipPath id="clip0_34_175">
<rect width="488" height="316" fill="white"/>
</clipPath>
</defs>
</svg>
