<svg width="26" height="26" viewBox="0 0 26 26" fill="none" xmlns="http://www.w3.org/2000/svg">
<g id="Heart">
<path id="Vector" d="M24.375 9.54688C24.375 16.6562 13.8338 22.4108 13.3849 22.6484C13.2666 22.7121 13.1344 22.7454 13 22.7454C12.8656 22.7454 12.7334 22.7121 12.6151 22.6484C12.1662 22.4108 1.625 16.6562 1.625 9.54688C1.62688 7.87742 2.2909 6.27688 3.47139 5.09639C4.65188 3.9159 6.25242 3.25188 7.92188 3.25C10.0191 3.25 11.8554 4.15187 13 5.67633C14.1446 4.15187 15.9809 3.25 18.0781 3.25C19.7476 3.25188 21.3481 3.9159 22.5286 5.09639C23.7091 6.27688 24.3731 7.87742 24.375 9.54688Z" fill="#6709FA"/>
</g>
</svg>
