<svg width="148" height="41" viewBox="0 0 148 41" fill="none" xmlns="http://www.w3.org/2000/svg">
<path d="M20.92 8.08C20.92 8.42667 20.4933 8.88 19.64 9.44C18.8133 10 17.6933 10.64 16.28 11.36C14.8667 12.08 13.3067 12.8533 11.6 13.68C9.92 14.5067 8.22667 15.36 6.52 16.24C7.96 17.2533 9.4 18.2 10.84 19.08C12.28 19.96 13.5867 20.76 14.76 21.48C15.96 22.2 16.9067 22.84 17.6 23.4C18.32 23.9333 18.68 24.3733 18.68 24.72C18.68 25.2267 18.4933 25.72 18.12 26.2C17.7467 26.6533 17.1467 26.88 16.32 26.88C16.08 26.88 15.5867 26.72 14.84 26.4C14.0933 26.0533 13.1867 25.6 12.12 25.04C11.0533 24.4533 9.89333 23.8 8.64 23.08C7.41333 22.36 6.17333 21.6 4.92 20.8C3.69333 19.9733 2.54667 19.16 1.48 18.36C1 18.0133 0.666667 17.6667 0.48 17.32C0.32 16.9467 0.24 16.6 0.24 16.28C0.24 15.8267 0.36 15.4 0.6 15C0.866667 14.5733 1.30667 14.1867 1.92 13.84C3.14667 13.0933 4.45333 12.36 5.84 11.64C7.25333 10.8933 8.65333 10.2 10.04 9.56C11.4533 8.89333 12.7733 8.32 14 7.84C15.2267 7.33333 16.2667 6.93333 17.12 6.64C18 6.34667 18.6 6.2 18.92 6.2C19.6667 6.2 20.1867 6.36 20.48 6.68C20.7733 6.97333 20.92 7.44 20.92 8.08ZM39.2103 35.08C38.2236 35.08 37.197 34.84 36.1303 34.36C35.0636 33.9067 34.157 33.1333 33.4103 32.04C32.6903 30.9467 32.3303 29.4933 32.3303 27.68C32.3303 25.76 32.4903 23.7733 32.8103 21.72C33.157 19.64 33.597 17.6 34.1303 15.6C34.6903 13.5733 35.2903 11.6667 35.9303 9.88C36.597 8.09333 37.2503 6.50667 37.8903 5.12C38.557 3.73333 39.1703 2.65333 39.7303 1.88C40.317 1.08 40.7836 0.679999 41.1303 0.679999C41.8503 0.679999 42.4903 0.946665 43.0503 1.48C43.637 2.01333 43.9303 2.82667 43.9303 3.92C43.9303 4.18667 43.7703 4.84 43.4503 5.88C43.157 6.89333 42.7703 8.16 42.2903 9.68C41.837 11.2 41.3303 12.8533 40.7703 14.64C40.237 16.4 39.7303 18.1867 39.2503 20C38.797 21.8133 38.4103 23.52 38.0903 25.12C37.797 26.72 37.6503 28.0933 37.6503 29.24C37.6503 29.56 37.837 29.72 38.2103 29.72C38.7436 29.72 39.5303 29.5867 40.5703 29.32C41.637 29.0533 42.797 28.72 44.0503 28.32C45.3303 27.8933 46.557 27.48 47.7303 27.08C48.9036 26.68 49.9036 26.3467 50.7303 26.08C51.557 25.8133 52.0236 25.68 52.1303 25.68C52.797 25.68 53.3303 25.8667 53.7303 26.24C54.1303 26.6133 54.3303 27.1467 54.3303 27.84C54.3303 28.32 54.0103 28.88 53.3703 29.52C52.7303 30.1333 51.877 30.7733 50.8103 31.44C49.7436 32.08 48.5436 32.6667 47.2103 33.2C45.9036 33.76 44.557 34.2133 43.1703 34.56C41.7836 34.9067 40.4636 35.08 39.2103 35.08ZM70.235 34.44C69.1417 34.44 68.315 34.2667 67.755 33.92C67.2217 33.6 66.8617 33.2267 66.675 32.8C66.515 32.3733 66.435 32.04 66.435 31.8C66.435 31.0267 66.7817 30.3867 67.475 29.88C68.195 29.3467 68.995 29.08 69.875 29.08C70.7283 29.08 71.7817 28.96 73.035 28.72C74.315 28.4533 75.6617 28.08 77.075 27.6C78.515 27.12 79.8883 26.52 81.195 25.8C82.5283 25.08 83.6883 24.2533 84.675 23.32C85.6617 22.3867 86.3417 21.36 86.715 20.24C86.1283 20.1333 85.5417 20.0533 84.955 20C84.3683 19.92 83.7817 19.88 83.195 19.88C81.2217 19.88 79.1817 20.0933 77.075 20.52C74.9683 20.9467 72.875 21.36 70.795 21.76C70.2883 21.8667 69.835 21.7733 69.435 21.48C69.3817 22.04 69.3283 22.56 69.275 23.04C69.2483 23.4933 69.2217 23.9867 69.195 24.52C69.1417 25.8267 69.0217 26.84 68.835 27.56C68.675 28.2533 68.4883 28.7467 68.275 29.04C68.0617 29.3333 67.835 29.5067 67.595 29.56C67.355 29.6133 67.1283 29.64 66.915 29.64C66.835 29.64 66.7817 29.64 66.755 29.64C66.275 29.64 65.8217 29.52 65.395 29.28C64.9683 29.04 64.6217 28.5467 64.355 27.8C64.0883 27.0267 63.955 25.8667 63.955 24.32C63.955 19.4133 64.4883 15.2533 65.555 11.84C66.6483 8.4 68.2083 5.78666 70.235 4C72.2883 2.18667 74.7417 1.28 77.595 1.28C79.835 1.28 81.5817 1.89333 82.835 3.12C84.0883 4.32 84.715 6.05333 84.715 8.32C84.715 9.46667 84.4883 10.6133 84.035 11.76C83.5817 12.9067 82.9417 14.04 82.115 15.16C82.6217 15.0533 83.115 14.9733 83.595 14.92C84.075 14.84 84.5283 14.8 84.955 14.8C87.4617 14.8 89.315 15.2533 90.515 16.16C91.715 17.04 92.315 18.2267 92.315 19.72C92.315 21.2133 91.8883 22.6133 91.035 23.92C90.2083 25.2267 89.1017 26.4267 87.715 27.52C86.355 28.5867 84.8483 29.56 83.195 30.44C81.5417 31.2933 79.8883 32.0267 78.235 32.64C76.5817 33.2267 75.0483 33.6667 73.635 33.96C72.2217 34.28 71.0883 34.44 70.235 34.44ZM69.915 17.36C70.075 17.28 70.2483 17.2267 70.435 17.2C72.835 16.8 74.675 16.2533 75.955 15.56C77.235 14.8667 78.115 14 78.595 12.96C79.075 11.92 79.315 10.68 79.315 9.24C79.315 8.86667 79.2617 8.46667 79.155 8.04C79.0483 7.61333 78.835 7.25333 78.515 6.96C78.2217 6.64 77.7683 6.48 77.155 6.48C75.1283 6.48 73.5417 7.4 72.395 9.24C71.275 11.0533 70.4483 13.76 69.915 17.36ZM99.3663 40.04C98.7796 40.04 98.3262 39.7733 98.0062 39.24C97.6862 38.7333 97.5262 38.16 97.5262 37.52C97.5262 37.12 97.7396 36.36 98.1662 35.24C98.5929 34.1467 99.1663 32.8 99.8863 31.2C100.633 29.5733 101.486 27.8 102.446 25.88C103.406 23.9333 104.433 21.92 105.526 19.84C106.62 17.7333 107.713 15.64 108.806 13.56C109.926 11.48 111.006 9.50667 112.046 7.64C113.086 5.77333 114.046 4.10666 114.926 2.64C115.273 2.10666 115.686 1.64 116.166 1.24C116.673 0.839999 117.233 0.639999 117.846 0.639999C118.46 0.639999 118.953 0.893333 119.326 1.4C119.726 1.88 119.926 2.45333 119.926 3.12C119.926 3.36 119.673 4.02667 119.166 5.12C118.66 6.18667 117.966 7.58667 117.086 9.32C116.206 11.0267 115.18 12.9867 114.006 15.2C112.86 17.4133 111.62 19.7867 110.286 22.32C108.98 24.8267 107.633 27.4 106.246 30.04C104.886 32.68 103.553 35.3067 102.246 37.92C101.98 38.5067 101.593 39 101.086 39.4C100.58 39.8267 100.006 40.04 99.3663 40.04ZM145.698 18.36C144.444 19.1867 143.084 20.0133 141.618 20.84C140.178 21.64 138.724 22.4 137.258 23.12C135.791 23.84 134.431 24.4933 133.178 25.08C131.924 25.64 130.858 26.08 129.978 26.4C129.098 26.72 128.524 26.88 128.258 26.88C127.698 26.88 127.204 26.7067 126.778 26.36C126.351 26.0133 126.138 25.5867 126.138 25.08C126.138 24.6533 126.564 24.12 127.418 23.48C128.298 22.84 129.444 22.12 130.858 21.32C132.271 20.52 133.831 19.6667 135.538 18.76C137.271 17.8533 138.991 16.92 140.698 15.96C139.284 15.0533 137.884 14.2 136.498 13.4C135.138 12.6 133.884 11.88 132.738 11.24C131.618 10.5733 130.724 10 130.058 9.52C129.391 9.01333 129.058 8.61333 129.058 8.32C129.058 7.70666 129.244 7.2 129.618 6.8C129.991 6.4 130.564 6.2 131.338 6.2C131.551 6.2 132.018 6.34667 132.738 6.64C133.458 6.93333 134.338 7.33333 135.378 7.84C136.418 8.34667 137.538 8.93333 138.738 9.6C139.964 10.24 141.178 10.92 142.378 11.64C143.604 12.36 144.738 13.08 145.778 13.8C146.311 14.1733 146.671 14.56 146.858 14.96C147.071 15.3333 147.178 15.6933 147.178 16.04C147.178 16.44 147.058 16.84 146.818 17.24C146.604 17.6133 146.231 17.9867 145.698 18.36Z" fill="#6709FA"/>
</svg>
